<mxfile host="app.diagrams.net" agent="Mozilla/5.0 (Windows NT 10.0; Win64; x64) AppleWebKit/537.36 (KHTML, like Gecko) Chrome/130.0.0.0 Safari/537.36" version="24.8.3">
  <diagram name="Halaman-1" id="MAN-PInR97B5rJ8d5mjZ">
    <mxGraphModel dx="1050" dy="557" grid="1" gridSize="10" guides="1" tooltips="1" connect="1" arrows="1" fold="1" page="1" pageScale="1" pageWidth="827" pageHeight="1169" math="0" shadow="0">
      <root>
        <mxCell id="0" />
        <mxCell id="1" parent="0" />
        <mxCell id="YmR1wLv2K_NNWLd2PuYE-1" value="&lt;h1 style=&quot;margin-top: 0px;&quot;&gt;My App&amp;nbsp;&lt;/h1&gt;&lt;div&gt;Struktur UI application MyApp(Aplikasi Chat)&lt;/div&gt;" style="text;html=1;whiteSpace=wrap;overflow=hidden;rounded=0;align=right;" parent="1" vertex="1">
          <mxGeometry x="577" y="3" width="250" height="87" as="geometry" />
        </mxCell>
        <mxCell id="YmR1wLv2K_NNWLd2PuYE-2" value="Start" style="swimlane;fontStyle=0;childLayout=stackLayout;horizontal=1;startSize=30;horizontalStack=0;resizeParent=1;resizeParentMax=0;resizeLast=0;collapsible=1;marginBottom=0;whiteSpace=wrap;html=1;" parent="1" vertex="1">
          <mxGeometry x="40" y="135" width="140" height="120" as="geometry" />
        </mxCell>
        <mxCell id="YmR1wLv2K_NNWLd2PuYE-3" value="Splash screen" style="text;strokeColor=none;fillColor=none;align=left;verticalAlign=middle;spacingLeft=4;spacingRight=4;overflow=hidden;points=[[0,0.5],[1,0.5]];portConstraint=eastwest;rotatable=0;whiteSpace=wrap;html=1;" parent="YmR1wLv2K_NNWLd2PuYE-2" vertex="1">
          <mxGeometry y="30" width="140" height="30" as="geometry" />
        </mxCell>
        <mxCell id="YmR1wLv2K_NNWLd2PuYE-4" value="Login" style="text;strokeColor=none;fillColor=none;align=left;verticalAlign=middle;spacingLeft=4;spacingRight=4;overflow=hidden;points=[[0,0.5],[1,0.5]];portConstraint=eastwest;rotatable=0;whiteSpace=wrap;html=1;" parent="YmR1wLv2K_NNWLd2PuYE-2" vertex="1">
          <mxGeometry y="60" width="140" height="30" as="geometry" />
        </mxCell>
        <mxCell id="YmR1wLv2K_NNWLd2PuYE-5" value="Register" style="text;strokeColor=none;fillColor=none;align=left;verticalAlign=middle;spacingLeft=4;spacingRight=4;overflow=hidden;points=[[0,0.5],[1,0.5]];portConstraint=eastwest;rotatable=0;whiteSpace=wrap;html=1;" parent="YmR1wLv2K_NNWLd2PuYE-2" vertex="1">
          <mxGeometry y="90" width="140" height="30" as="geometry" />
        </mxCell>
        <mxCell id="YmR1wLv2K_NNWLd2PuYE-11" style="edgeStyle=orthogonalEdgeStyle;rounded=0;orthogonalLoop=1;jettySize=auto;html=1;entryX=0;entryY=0.5;entryDx=0;entryDy=0;exitX=1;exitY=0.5;exitDx=0;exitDy=0;" parent="YmR1wLv2K_NNWLd2PuYE-2" source="YmR1wLv2K_NNWLd2PuYE-3" target="YmR1wLv2K_NNWLd2PuYE-4" edge="1">
          <mxGeometry relative="1" as="geometry">
            <Array as="points">
              <mxPoint x="160" y="45" />
              <mxPoint x="160" y="60" />
              <mxPoint y="60" />
            </Array>
          </mxGeometry>
        </mxCell>
        <mxCell id="YmR1wLv2K_NNWLd2PuYE-6" value="Home" style="swimlane;fontStyle=0;childLayout=stackLayout;horizontal=1;startSize=30;horizontalStack=0;resizeParent=1;resizeParentMax=0;resizeLast=0;collapsible=1;marginBottom=0;whiteSpace=wrap;html=1;" parent="1" vertex="1">
          <mxGeometry x="230" y="160" width="140" height="110" as="geometry" />
        </mxCell>
        <mxCell id="YmR1wLv2K_NNWLd2PuYE-39" style="edgeStyle=orthogonalEdgeStyle;rounded=0;orthogonalLoop=1;jettySize=auto;html=1;" parent="YmR1wLv2K_NNWLd2PuYE-6" source="YmR1wLv2K_NNWLd2PuYE-7" target="YmR1wLv2K_NNWLd2PuYE-9" edge="1">
          <mxGeometry relative="1" as="geometry">
            <Array as="points">
              <mxPoint x="160" y="45" />
              <mxPoint x="160" y="80" />
            </Array>
          </mxGeometry>
        </mxCell>
        <mxCell id="YmR1wLv2K_NNWLd2PuYE-7" value="Profile" style="text;strokeColor=none;fillColor=none;align=left;verticalAlign=middle;spacingLeft=4;spacingRight=4;overflow=hidden;points=[[0,0.5],[1,0.5]];portConstraint=eastwest;rotatable=0;whiteSpace=wrap;html=1;" parent="YmR1wLv2K_NNWLd2PuYE-6" vertex="1">
          <mxGeometry y="30" width="140" height="30" as="geometry" />
        </mxCell>
        <mxCell id="YmR1wLv2K_NNWLd2PuYE-9" value="Menu" style="text;strokeColor=none;fillColor=none;align=left;verticalAlign=middle;spacingLeft=4;spacingRight=4;overflow=hidden;points=[[0,0.5],[1,0.5]];portConstraint=eastwest;rotatable=0;whiteSpace=wrap;html=1;" parent="YmR1wLv2K_NNWLd2PuYE-6" vertex="1">
          <mxGeometry y="60" width="140" height="50" as="geometry" />
        </mxCell>
        <mxCell id="YmR1wLv2K_NNWLd2PuYE-15" value="Page" style="swimlane;fontStyle=0;childLayout=stackLayout;horizontal=1;startSize=30;horizontalStack=0;resizeParent=1;resizeParentMax=0;resizeLast=0;collapsible=1;marginBottom=0;whiteSpace=wrap;html=1;" parent="1" vertex="1">
          <mxGeometry x="437" y="130" width="140" height="240" as="geometry" />
        </mxCell>
        <mxCell id="YmR1wLv2K_NNWLd2PuYE-23" style="edgeStyle=orthogonalEdgeStyle;rounded=0;orthogonalLoop=1;jettySize=auto;html=1;exitX=1;exitY=0.5;exitDx=0;exitDy=0;entryX=1;entryY=0.5;entryDx=0;entryDy=0;" parent="YmR1wLv2K_NNWLd2PuYE-15" source="YmR1wLv2K_NNWLd2PuYE-16" target="YmR1wLv2K_NNWLd2PuYE-21" edge="1">
          <mxGeometry relative="1" as="geometry">
            <Array as="points">
              <mxPoint x="203" y="45" />
              <mxPoint x="203" y="105" />
            </Array>
          </mxGeometry>
        </mxCell>
        <mxCell id="YmR1wLv2K_NNWLd2PuYE-25" style="edgeStyle=orthogonalEdgeStyle;rounded=0;orthogonalLoop=1;jettySize=auto;html=1;entryX=1;entryY=0.5;entryDx=0;entryDy=0;exitX=1;exitY=0.5;exitDx=0;exitDy=0;" parent="YmR1wLv2K_NNWLd2PuYE-15" source="YmR1wLv2K_NNWLd2PuYE-16" target="YmR1wLv2K_NNWLd2PuYE-19" edge="1">
          <mxGeometry relative="1" as="geometry">
            <Array as="points">
              <mxPoint x="223" y="45" />
              <mxPoint x="223" y="135" />
            </Array>
          </mxGeometry>
        </mxCell>
        <mxCell id="YmR1wLv2K_NNWLd2PuYE-16" value="Chat" style="text;strokeColor=none;fillColor=none;align=left;verticalAlign=middle;spacingLeft=4;spacingRight=4;overflow=hidden;points=[[0,0.5],[1,0.5]];portConstraint=eastwest;rotatable=0;whiteSpace=wrap;html=1;" parent="YmR1wLv2K_NNWLd2PuYE-15" vertex="1">
          <mxGeometry y="30" width="140" height="30" as="geometry" />
        </mxCell>
        <mxCell id="YmR1wLv2K_NNWLd2PuYE-33" value="Setting" style="text;strokeColor=none;fillColor=none;align=left;verticalAlign=middle;spacingLeft=4;spacingRight=4;overflow=hidden;points=[[0,0.5],[1,0.5]];portConstraint=eastwest;rotatable=0;whiteSpace=wrap;html=1;" parent="YmR1wLv2K_NNWLd2PuYE-15" vertex="1">
          <mxGeometry y="60" width="140" height="30" as="geometry" />
        </mxCell>
        <mxCell id="YmR1wLv2K_NNWLd2PuYE-21" value="ChatDetail" style="text;strokeColor=none;fillColor=none;align=left;verticalAlign=middle;spacingLeft=4;spacingRight=4;overflow=hidden;points=[[0,0.5],[1,0.5]];portConstraint=eastwest;rotatable=0;whiteSpace=wrap;html=1;" parent="YmR1wLv2K_NNWLd2PuYE-15" vertex="1">
          <mxGeometry y="90" width="140" height="30" as="geometry" />
        </mxCell>
        <mxCell id="YmR1wLv2K_NNWLd2PuYE-26" style="edgeStyle=orthogonalEdgeStyle;rounded=0;orthogonalLoop=1;jettySize=auto;html=1;" parent="YmR1wLv2K_NNWLd2PuYE-15" source="YmR1wLv2K_NNWLd2PuYE-19" target="YmR1wLv2K_NNWLd2PuYE-21" edge="1">
          <mxGeometry relative="1" as="geometry" />
        </mxCell>
        <mxCell id="YmR1wLv2K_NNWLd2PuYE-19" value="Contact" style="text;strokeColor=none;fillColor=none;align=left;verticalAlign=middle;spacingLeft=4;spacingRight=4;overflow=hidden;points=[[0,0.5],[1,0.5]];portConstraint=eastwest;rotatable=0;whiteSpace=wrap;html=1;" parent="YmR1wLv2K_NNWLd2PuYE-15" vertex="1">
          <mxGeometry y="120" width="140" height="30" as="geometry" />
        </mxCell>
        <mxCell id="YmR1wLv2K_NNWLd2PuYE-17" value="Stories" style="text;strokeColor=none;fillColor=none;align=left;verticalAlign=middle;spacingLeft=4;spacingRight=4;overflow=hidden;points=[[0,0.5],[1,0.5]];portConstraint=eastwest;rotatable=0;whiteSpace=wrap;html=1;" parent="YmR1wLv2K_NNWLd2PuYE-15" vertex="1">
          <mxGeometry y="150" width="140" height="30" as="geometry" />
        </mxCell>
        <mxCell id="YmR1wLv2K_NNWLd2PuYE-18" value="Community" style="text;strokeColor=none;fillColor=none;align=left;verticalAlign=middle;spacingLeft=4;spacingRight=4;overflow=hidden;points=[[0,0.5],[1,0.5]];portConstraint=eastwest;rotatable=0;whiteSpace=wrap;html=1;" parent="YmR1wLv2K_NNWLd2PuYE-15" vertex="1">
          <mxGeometry y="180" width="140" height="30" as="geometry" />
        </mxCell>
        <mxCell id="YmR1wLv2K_NNWLd2PuYE-20" value="Call" style="text;strokeColor=none;fillColor=none;align=left;verticalAlign=middle;spacingLeft=4;spacingRight=4;overflow=hidden;points=[[0,0.5],[1,0.5]];portConstraint=eastwest;rotatable=0;whiteSpace=wrap;html=1;" parent="YmR1wLv2K_NNWLd2PuYE-15" vertex="1">
          <mxGeometry y="210" width="140" height="30" as="geometry" />
        </mxCell>
        <mxCell id="YmR1wLv2K_NNWLd2PuYE-34" style="edgeStyle=orthogonalEdgeStyle;rounded=0;orthogonalLoop=1;jettySize=auto;html=1;entryX=0.984;entryY=0.793;entryDx=0;entryDy=0;entryPerimeter=0;" parent="YmR1wLv2K_NNWLd2PuYE-15" source="YmR1wLv2K_NNWLd2PuYE-16" target="YmR1wLv2K_NNWLd2PuYE-33" edge="1">
          <mxGeometry relative="1" as="geometry">
            <Array as="points">
              <mxPoint x="183" y="45" />
              <mxPoint x="183" y="84" />
            </Array>
          </mxGeometry>
        </mxCell>
        <mxCell id="YmR1wLv2K_NNWLd2PuYE-22" value="" style="edgeStyle=orthogonalEdgeStyle;rounded=0;orthogonalLoop=1;jettySize=auto;html=1;entryX=0;entryY=0.78;entryDx=0;entryDy=0;entryPerimeter=0;" parent="1" source="YmR1wLv2K_NNWLd2PuYE-9" target="YmR1wLv2K_NNWLd2PuYE-16" edge="1">
          <mxGeometry relative="1" as="geometry" />
        </mxCell>
        <mxCell id="YmR1wLv2K_NNWLd2PuYE-27" value="" style="edgeStyle=orthogonalEdgeStyle;rounded=0;orthogonalLoop=1;jettySize=auto;html=1;" parent="1" source="YmR1wLv2K_NNWLd2PuYE-4" target="YmR1wLv2K_NNWLd2PuYE-9" edge="1">
          <mxGeometry relative="1" as="geometry">
            <Array as="points">
              <mxPoint x="205" y="210" />
              <mxPoint x="205" y="250" />
            </Array>
          </mxGeometry>
        </mxCell>
        <mxCell id="YmR1wLv2K_NNWLd2PuYE-29" value="&lt;b&gt;&lt;font style=&quot;font-size: 14px;&quot;&gt;Routes:&lt;/font&gt;&lt;/b&gt;" style="text;html=1;align=left;verticalAlign=middle;whiteSpace=wrap;rounded=0;fontStyle=2" parent="1" vertex="1">
          <mxGeometry x="40" y="80" width="60" height="30" as="geometry" />
        </mxCell>
        <mxCell id="YmR1wLv2K_NNWLd2PuYE-31" style="edgeStyle=orthogonalEdgeStyle;rounded=0;orthogonalLoop=1;jettySize=auto;html=1;entryX=0;entryY=0.5;entryDx=0;entryDy=0;" parent="1" source="YmR1wLv2K_NNWLd2PuYE-5" target="YmR1wLv2K_NNWLd2PuYE-7" edge="1">
          <mxGeometry relative="1" as="geometry">
            <Array as="points">
              <mxPoint x="210" y="240" />
              <mxPoint x="210" y="205" />
            </Array>
          </mxGeometry>
        </mxCell>
        <mxCell id="YmR1wLv2K_NNWLd2PuYE-36" style="edgeStyle=orthogonalEdgeStyle;rounded=0;orthogonalLoop=1;jettySize=auto;html=1;entryX=0;entryY=0.5;entryDx=0;entryDy=0;" parent="1" source="YmR1wLv2K_NNWLd2PuYE-9" target="YmR1wLv2K_NNWLd2PuYE-17" edge="1">
          <mxGeometry relative="1" as="geometry" />
        </mxCell>
        <mxCell id="YmR1wLv2K_NNWLd2PuYE-37" style="edgeStyle=orthogonalEdgeStyle;rounded=0;orthogonalLoop=1;jettySize=auto;html=1;entryX=0;entryY=0.5;entryDx=0;entryDy=0;" parent="1" source="YmR1wLv2K_NNWLd2PuYE-9" target="YmR1wLv2K_NNWLd2PuYE-18" edge="1">
          <mxGeometry relative="1" as="geometry" />
        </mxCell>
        <mxCell id="YmR1wLv2K_NNWLd2PuYE-38" style="edgeStyle=orthogonalEdgeStyle;rounded=0;orthogonalLoop=1;jettySize=auto;html=1;entryX=0;entryY=0.5;entryDx=0;entryDy=0;" parent="1" source="YmR1wLv2K_NNWLd2PuYE-9" target="YmR1wLv2K_NNWLd2PuYE-20" edge="1">
          <mxGeometry relative="1" as="geometry" />
        </mxCell>
        <mxCell id="YmR1wLv2K_NNWLd2PuYE-40" value="" style="edgeStyle=orthogonalEdgeStyle;rounded=0;orthogonalLoop=1;jettySize=auto;html=1;" parent="1" source="YmR1wLv2K_NNWLd2PuYE-9" target="YmR1wLv2K_NNWLd2PuYE-17" edge="1">
          <mxGeometry relative="1" as="geometry" />
        </mxCell>
      </root>
    </mxGraphModel>
  </diagram>
</mxfile>
